<?xml version="1.0" encoding="UTF-8"?>
<svg xmlns="http://www.w3.org/2000/svg" xmlns:xlink="http://www.w3.org/1999/xlink" width="18pt" height="18pt" viewBox="0 0 18 18" version="1.1">
<g id="surface1">
<path style=" stroke:none;fill-rule:nonzero;fill:rgb(100%,100%,100%);fill-opacity:1;" d="M 17.324219 8.871094 C 17.324219 13.679688 13.484375 17.578125 8.746094 17.578125 C 4.007812 17.578125 0.167969 13.679688 0.167969 8.871094 C 0.167969 4.066406 4.007812 0.167969 8.746094 0.167969 C 13.484375 0.167969 17.324219 4.066406 17.324219 8.871094 Z M 17.324219 8.871094 "/>
<path style=" stroke:none;fill-rule:evenodd;fill:rgb(0%,49.803922%,0%);fill-opacity:1;" d="M 9.003906 0.0078125 C 13.910156 0.0078125 17.914062 4.027344 17.914062 8.960938 C 17.914062 13.890625 13.910156 17.910156 9.003906 17.910156 C 4.097656 17.910156 0.09375 13.890625 0.09375 8.960938 C 0.09375 4.027344 4.097656 0.0078125 9.003906 0.0078125 Z M 5.03125 5.664062 L 6.972656 5.664062 L 6.972656 3.09375 C 6.972656 2.75 7.183594 2.46875 7.441406 2.46875 C 7.695312 2.46875 7.90625 2.75 7.90625 3.09375 L 7.90625 5.664062 L 10.195312 5.664062 L 10.195312 3.09375 C 10.195312 2.75 10.40625 2.46875 10.660156 2.46875 C 10.917969 2.46875 11.128906 2.75 11.128906 3.09375 L 11.128906 5.664062 L 12.976562 5.664062 C 13.246094 5.664062 13.460938 5.960938 13.460938 6.320312 C 13.460938 6.683594 13.246094 6.980469 12.976562 6.980469 L 12.414062 6.980469 L 12.414062 9.65625 C 12.414062 10.378906 11.824219 10.972656 11.105469 10.972656 L 9.492188 10.972656 C 9.488281 10.996094 9.402344 10.980469 9.394531 11.007812 C 9.992188 11.492188 9.429688 12.691406 9.851562 13.097656 C 10.214844 13.445312 10.800781 13.753906 11.050781 14.023438 C 12.480469 15.566406 11.84375 15.828125 10.488281 14.945312 C 10.003906 14.628906 9.765625 14.191406 8.957031 13.574219 C 8.359375 13.117188 9.253906 11.664062 8.476562 11.046875 C 8.457031 11.03125 8.332031 10.996094 8.328125 10.972656 L 6.902344 10.972656 C 6.183594 10.972656 5.59375 10.378906 5.59375 9.65625 L 5.59375 6.980469 L 5.03125 6.980469 C 4.761719 6.980469 4.542969 6.683594 4.542969 6.320312 C 4.542969 5.960938 4.761719 5.664062 5.03125 5.664062 Z M 5.03125 5.664062 "/>
</g>
</svg>
