<?xml version="1.0" encoding="UTF-8"?>
<svg xmlns="http://www.w3.org/2000/svg" xmlns:xlink="http://www.w3.org/1999/xlink" width="20pt" height="20pt" viewBox="0 0 20 20" version="1.1">
<g id="surface1">
<path style=" stroke:none;fill-rule:nonzero;fill:rgb(100%,100%,100%);fill-opacity:1;" d="M 19.246094 9.859375 C 19.246094 15.199219 14.980469 19.53125 9.71875 19.53125 C 4.453125 19.53125 0.1875 15.199219 0.1875 9.859375 C 0.1875 4.519531 4.453125 0.1875 9.71875 0.1875 C 14.980469 0.1875 19.246094 4.519531 19.246094 9.859375 Z M 19.246094 9.859375 "/>
<path style=" stroke:none;fill-rule:evenodd;fill:rgb(0%,49.803922%,0%);fill-opacity:1;" d="M 10.003906 0.0078125 C 15.457031 0.0078125 19.90625 4.476562 19.90625 9.953125 C 19.90625 15.433594 15.457031 19.902344 10.003906 19.902344 C 4.550781 19.902344 0.105469 15.433594 0.105469 9.953125 C 0.105469 4.476562 4.550781 0.0078125 10.003906 0.0078125 Z M 5.589844 6.292969 L 7.746094 6.292969 L 7.746094 3.4375 C 7.746094 3.054688 7.980469 2.746094 8.265625 2.746094 C 8.550781 2.746094 8.785156 3.054688 8.785156 3.4375 L 8.785156 6.292969 L 11.328125 6.292969 L 11.328125 3.4375 C 11.328125 3.054688 11.5625 2.746094 11.847656 2.746094 C 12.132812 2.746094 12.363281 3.054688 12.363281 3.4375 L 12.363281 6.292969 L 14.421875 6.292969 C 14.71875 6.292969 14.957031 6.621094 14.957031 7.023438 C 14.957031 7.425781 14.71875 7.753906 14.421875 7.753906 L 13.792969 7.753906 L 13.792969 10.730469 C 13.792969 11.53125 13.136719 12.191406 12.339844 12.191406 L 10.546875 12.191406 C 10.539062 12.21875 10.445312 12.203125 10.4375 12.230469 C 11.105469 12.769531 10.476562 14.105469 10.949219 14.554688 C 11.351562 14.9375 12 15.28125 12.277344 15.582031 C 13.867188 17.292969 13.15625 17.585938 11.65625 16.605469 C 11.113281 16.253906 10.851562 15.769531 9.953125 15.082031 C 9.289062 14.578125 10.285156 12.960938 9.417969 12.277344 C 9.398438 12.257812 9.257812 12.21875 9.253906 12.191406 L 7.671875 12.191406 C 6.871094 12.191406 6.21875 11.53125 6.21875 10.730469 L 6.21875 7.753906 L 5.589844 7.753906 C 5.289062 7.753906 5.050781 7.425781 5.050781 7.023438 C 5.050781 6.621094 5.289062 6.292969 5.589844 6.292969 Z M 5.589844 6.292969 "/>
</g>
</svg>
