<?xml version="1.0" encoding="UTF-8"?>
<svg viewBox="0 0 212.6 212.6" xmlns="http://www.w3.org/2000/svg">
 <path d="m204.6 104.8c0 56.774-45.353 102.8-101.3 102.8-55.946 0-101.3-46.025-101.3-102.8 0-56.774 45.353-102.8 101.3-102.8 55.946 0 101.3 46.025 101.3 102.8z" fill="#fff"/>
 <g transform="matrix(.18447 0 0 .18532 -1750.9 -1489.1)" fill-rule="evenodd">
  <path class="fil1" d="m10068 8035.8c314.22 0 570.5 256.28 570.5 570.5s-256.28 570.5-570.5 570.5-570.5-256.28-570.5-570.5 256.28-570.5 570.5-570.5zm-254.46 360.44h124.44v-163.85c0-21.823 13.453-39.666 29.866-39.666 16.472 0 29.925 17.843 29.925 39.666v163.85h146.49v-163.85c0-21.823 13.438-39.666 29.883-39.666 16.429 0 29.861 17.843 29.861 39.666v163.85h118.46c17.175 0 31.036 18.854 31.036 41.905 0 23.06-13.861 41.918-31.036 41.918h-36.212v170.69c0 46.023-37.709 83.748-83.721 83.748h-103.24c-0.38574 1.626-5.8779 0.71289-6.3184 2.3818 38.436 30.835 2.3545 107.4 29.382 133.24 23.188 22.095 60.713 41.732 76.673 58.874 91.666 98.327 50.717 115.11-35.898 58.835-31.106-20.252-46.256-48.095-98.055-87.331-38.28-29.095 19.067-121.72-30.807-161.06-1.2402-0.97266-9.3438-3.3115-9.4854-4.9375h-91.279c-46.027 0-83.736-37.681-83.736-83.748v-170.69h-36.224c-17.158 0-31.036-18.857-31.036-41.917 0-23.051 13.878-41.905 31.036-41.905h-9.77e-4z" fill="#007f00"/>
 </g>
</svg>
